<svg xmlns="http://www.w3.org/2000/svg" width="256" height="256" viewBox="0 0 256 256">
  <defs>
    <linearGradient id="g" x1="0" x2="1" y1="0" y2="1">
      <stop offset="0%" stop-color="#6C5CE7"/>
      <stop offset="100%" stop-color="#00D4FF"/>
    </linearGradient>
  </defs>
  <rect width="256" height="256" rx="32" fill="url(#g)"/>
  <g fill="#fff" transform="translate(35,40)">
    <path d="M34 120c-18 0-34-16-34-34s16-34 34-34 34 16 34 34-16 34-34 34zm0-18c9 0 16-7 16-16s-7-16-16-16-16 7-16 16 7 16 16 16z"/>
    <path d="M99 17h21l34 86h-22l-7-17H95l-7 17H66l33-86zm1 51h22l-11-29-11 29z"/>
    <circle cx="142" cy="116" r="10" />
  </g>
</svg>